<?xml version="1.0" encoding="UTF-8"?>
<svg width="44px" height="49px" viewBox="0 0 44 49" version="1.1" xmlns="http://www.w3.org/2000/svg" xmlns:xlink="http://www.w3.org/1999/xlink">
    <!-- Generator: Sketch 52.5 (67469) - http://www.bohemiancoding.com/sketch -->
    <title>🧠 Brain</title>
    <desc>Created with Sketch.</desc>
    <g id="Hephestos-Misc-Icons" stroke="none" stroke-width="1" fill="none" fill-rule="evenodd">
        <g transform="translate(-661.000000, -72.000000)" fill="#FFFFFF" fill-rule="nonzero" id="🧠-Brain">
            <g transform="translate(656.220001, 69.459232)">
                <path d="M17.0700769,10.6920641 C17.3567782,10.8089738 17.6537613,10.9627609 17.9518197,11.1611059 C19.4837427,12.1805345 20.3152829,13.992937 20.1277272,16.5918914 C20.0810496,17.2387021 19.5188663,17.725206 18.8720556,17.6785284 C18.225245,17.6318508 17.738741,17.0696674 17.7854186,16.4228568 C17.9136504,14.6459516 17.4583384,13.6535658 16.6507998,13.1161837 C16.2880312,12.8747769 15.9189616,12.7623069 15.6811534,12.7302046 C15.5722343,12.755329 15.4047511,12.803744 15.1948513,12.8834726 C14.6846672,13.0772616 14.1705581,13.3730657 13.6889607,13.7914142 C12.4090394,14.9032417 11.5705993,16.6719483 11.4145215,19.3250416 L11.3817106,19.8827788 L10.9282356,20.209134 C10.8434276,20.2701684 10.6697564,20.4087918 10.437223,20.6187428 C10.0399644,20.9774218 9.64115235,21.3959561 9.27025482,21.8667375 C7.38322143,24.2619552 6.94006225,26.8636754 8.74180699,29.7438671 C9.27723602,28.9951622 9.9413905,28.2881732 10.7235095,27.6250482 C11.9911923,26.5502345 13.25254,25.852793 14.1306509,25.4967438 C14.7316206,25.2530675 15.4163416,25.542711 15.6600179,26.1436808 C15.9036942,26.7446506 15.6140507,27.4293715 15.0130809,27.6730478 C14.8613361,27.7345761 14.565447,27.8732504 14.1747345,28.0892884 C13.5148211,28.4541767 12.8542914,28.897328 12.2422172,29.4162793 C11.2760665,30.2354369 10.5386057,31.1204817 10.0714356,32.0827446 C10.0444889,32.2902534 9.96232881,32.491145 9.82678559,32.6614588 C8.96262879,35.0529202 9.71319387,37.9050504 12.659262,41.3760382 C12.7379326,40.8187705 12.8779495,40.2808668 13.0693754,39.7667011 C13.2527791,39.274083 13.4436844,38.9089145 13.5897063,38.6860489 C13.9451083,38.1436171 14.6729463,37.9919995 15.2153781,38.3474015 C15.7578099,38.7028035 15.9094275,39.4306416 15.5540255,39.9730734 C15.4990071,40.0570452 15.3883521,40.2687088 15.2701954,40.5860751 C14.8715225,41.6569012 14.7941169,42.8736272 15.2342141,44.1840934 C15.253212,44.2292509 15.2692709,44.2753748 15.2823832,44.3221692 C15.3072849,44.3909793 15.3336181,44.4600404 15.3614108,44.5293449 C17.033765,48.6997619 21.2095324,49.5875169 25.7789342,47.2673951 L25.7789342,5.70535759 C25.6357906,5.6391002 25.4723635,5.56868679 25.2911925,5.49771881 C23.8971897,4.9516624 22.4755562,4.79577259 21.2009204,5.2338381 C19.4553601,5.83375049 18.0249936,7.52941591 17.0700769,10.6920641 Z M13.13976,45.2967937 C7.90148733,40.2464808 6.34609229,35.7872928 7.53448631,32.1066882 C4.2851607,27.9232184 4.71743426,23.8508697 7.42556588,20.4134293 C8.01993143,19.6589991 8.61536852,19.0681501 9.11063482,18.6518781 C9.38864991,15.6558035 10.4800167,13.4682149 12.1488961,12.0185118 C13.0243376,11.2580432 13.9070336,10.8046533 14.6631828,10.5668678 C15.812596,6.38104651 17.8004429,3.91928992 20.4376442,3.01293929 C22.322152,2.3652736 24.2817432,2.58015337 26.1477328,3.31109565 C26.4563113,3.43197151 26.729533,3.55379607 26.9629165,3.66833625 C27.2063273,3.55262712 27.492488,3.4290425 27.8161744,3.30637428 C29.6048909,2.62850022 31.4699806,2.39648017 33.2670472,2.90235816 C36.101152,3.70016458 38.1854018,6.19717542 39.2649963,10.5738072 C40.0162585,10.8134263 40.890373,11.2653768 41.7573723,12.0185118 C43.4325995,13.4737291 44.5259125,15.6724559 44.7987707,18.6861016 C45.2661346,19.1181314 45.8303495,19.7321613 46.3926996,20.5132807 C48.9973401,24.1311962 49.3386611,28.3312667 46.0002598,32.5598743 C47.185319,36.9270908 46.0434301,40.336302 43.4039444,42.7489101 C42.516501,43.5600731 41.6291069,44.1190304 40.9023867,44.4651928 C39.6528256,48.2814397 37.1803904,50.2670994 33.9298211,50.6205464 C32.1162765,50.8177401 30.2223376,50.4954703 28.364876,49.8442397 C27.8203601,49.6533311 27.3524676,49.4613712 26.9787761,49.2908176 C21.2486119,52.2580871 15.4607249,51.086622 13.181739,45.403423 C13.1674728,45.3678487 13.1534804,45.3323053 13.13976,45.2967937 Z M34.8411094,19.0862649 C35.2691022,17.9549548 35.9055174,16.8918761 36.6961853,15.9093831 C37.1027591,15.4041698 37.8419087,15.3242067 38.347122,15.7307805 C38.8523353,16.1373544 38.9322984,16.876504 38.5257246,17.3817173 C36.8634553,19.4472722 36.0910801,21.8833091 36.9269408,24.543102 C37.1213604,25.161765 36.7774433,25.8208986 36.1587804,26.0153183 C35.5401174,26.2097379 34.8809838,25.8658208 34.6865641,25.2471579 C34.2642522,23.9033188 34.1494443,22.6085618 34.2855322,21.3757975 C33.80474,21.2079824 33.2592203,21.1346185 32.6521935,21.1510677 C31.5970077,21.1796611 30.4247058,21.4760507 29.238386,21.9558895 C28.8408912,22.116667 28.4675013,22.2878224 28.1273341,22.4595832 L28.1273341,47.229163 C28.4372361,47.3651466 28.7774372,47.5003319 29.1418601,47.6280994 C30.6969738,48.1733261 32.2620885,48.4396437 33.6759668,48.2859072 C36.1258536,48.0195216 37.8833479,46.5325051 38.8097355,43.2790924 C39.6351044,40.3803257 38.7782035,38.6952468 36.9105346,38.1570135 C35.2330132,37.6735777 33.347586,38.3478072 32.913796,39.4884513 C32.6832796,40.0945907 32.005036,40.3990932 31.3988966,40.1685768 C30.7927572,39.9380603 30.4882546,39.2598168 30.7187711,38.6536774 C31.6360278,36.241765 34.8085324,35.1072761 37.5608416,35.9004491 C40.0004417,36.6035041 41.4674298,38.5661036 41.4604688,41.3252378 C41.5819117,41.2263949 41.7017702,41.1231659 41.819544,41.0155154 C43.5923185,39.3951201 44.4626463,37.248077 43.9971338,34.3787253 C41.9970874,35.4495735 39.7349113,34.7120153 37.5839007,32.9025476 C37.0876444,32.4850881 37.0237669,31.744375 37.4412264,31.2481187 C37.858686,30.7518623 38.599399,30.6879849 39.0956554,31.1054444 C40.9867595,32.6962743 42.5483162,32.9965031 43.8076056,31.5289048 C46.8011342,28.0402017 46.6094615,24.8337673 44.4868278,21.8853721 C44.1379352,21.4007509 43.7632446,20.9686514 43.3902479,20.5971429 C43.1723046,20.3800692 43.0097708,20.2364349 42.930682,20.1732032 L42.522442,19.8468147 L42.4917468,19.3250416 C42.335669,16.6719483 41.497229,14.9032417 40.2173076,13.7914142 C39.7357102,13.3730657 39.2216012,13.0772616 38.711417,12.8834726 C38.4201503,12.7728375 38.2105594,12.7224987 38.1257906,12.7110186 L37.3059167,12.599985 L37.134615,11.7905547 C36.2798763,7.75176567 34.6955142,5.74414839 32.6307002,5.16289895 C31.3932257,4.81454728 30.0089601,4.98675207 28.6483955,5.50236842 C28.4546329,5.57579908 28.2799769,5.64869202 28.1273341,5.7171694 L28.1273341,19.8738425 C28.2026419,19.8422089 28.2794894,19.8105135 28.3578167,19.7788319 C29.7825203,19.2025724 31.2134584,18.8407926 32.58858,18.8035296 C33.3852462,18.7819415 34.1400792,18.8716871 34.8411094,19.0862649 Z M17.6621567,21.3205067 C17.0753577,21.0444456 16.8234549,20.3449592 17.099516,19.7581602 C17.3755772,19.1713612 18.0750635,18.9194584 18.6618625,19.1955196 C19.3329831,19.51125 20.288576,20.099371 21.2495819,20.9695129 C23.4325377,22.9460681 24.490853,25.4319081 23.6598914,28.3190223 C23.4805254,28.9422162 22.829922,29.3020098 22.2067281,29.1226438 C21.5835342,28.9432778 21.2237406,28.2926744 21.4031066,27.6694805 C21.9490406,25.7726733 21.2549841,24.1424279 19.6733515,22.7103402 C19.2277845,22.306902 18.7461381,21.9546015 18.2651463,21.6585744 C17.9814482,21.4839721 17.7681668,21.3703794 17.6621567,21.3205067 Z M20.9436638,34.0316189 C21.4667436,33.648304 22.2015217,33.7616059 22.5848366,34.2846857 C22.9681515,34.8077656 22.8548496,35.5425437 22.3317698,35.9258585 C22.2854916,35.9597714 22.1823794,36.0425519 22.0419035,36.1684429 C21.8000442,36.3851912 21.5571355,36.6346274 21.3324262,36.9094285 C20.1025424,38.4134755 19.9555263,39.8207551 21.4742998,41.3369693 C21.93324,41.795136 21.9338669,42.538598 21.4757002,42.9975382 C21.0175334,43.4564783 20.2740714,43.4571052 19.8151313,42.9989385 C17.3127197,40.5007438 17.5984142,37.7659948 19.5144502,35.4228399 C20.0408743,34.7790665 20.5665481,34.3079707 20.9436638,34.0316189 Z" id="Brain" transform="translate(26.834750, 26.748494) scale(-1, 1) translate(-26.834750, -26.748494) "></path>
            </g>
        </g>
    </g>
</svg>