<?xml version="1.0" encoding="UTF-8"?>
<svg width="50px" height="38px" viewBox="0 0 50 38" version="1.1" xmlns="http://www.w3.org/2000/svg" xmlns:xlink="http://www.w3.org/1999/xlink">
    <!-- Generator: Sketch 52.5 (67469) - http://www.bohemiancoding.com/sketch -->
    <title>✉️ Email</title>
    <desc>Created with Sketch.</desc>
    <g id="Hephestos-Misc-Icons" stroke="none" stroke-width="1" fill="none" fill-rule="evenodd">
        <g transform="translate(-88.000000, -353.000000)" id="✉️-Email">
            <g transform="translate(86.000000, 344.960001)">
                <path d="M43.7500324,13.8395058 C44.2930515,13.3512407 45.1290726,13.3956276 45.6173377,13.9386468 C46.1056028,14.4816659 46.0612159,15.317687 45.5181967,15.8059521 L29.7960739,29.9427725 C28.1029341,31.4652442 25.4569753,31.4652442 23.7638473,29.942783 L8.04190489,15.8059465 C7.4988888,15.317678 7.45450714,14.4816567 7.94277566,13.9386406 C8.43104417,13.3956245 9.26706553,13.3512428 9.81008161,13.8395114 L25.5320357,27.9763583 C26.2197283,28.5947317 27.3401812,28.5947317 28.0278916,27.9763423 L43.7500324,13.8395058 Z M33.2568738,31.439031 C32.6954571,30.9720365 32.6189127,30.1383445 33.0859071,29.5769278 C33.5529016,29.015511 34.3865936,28.9389666 34.9480104,29.4059611 L45.4800795,38.1666862 C46.0414963,38.6336806 46.1180407,39.4673726 45.6510462,40.0287894 C45.1840517,40.5902062 44.3503597,40.6667506 43.788943,40.1997561 L33.2568738,31.439031 Z M18.6130985,29.4059532 C19.1745196,28.938964 20.0082109,29.0155161 20.4752002,29.5769372 C20.9421894,30.1383583 20.8656373,30.9720496 20.3042162,31.4390388 L9.77194878,40.1997639 C9.21052769,40.6667532 8.37683638,40.5902011 7.90984712,40.02878 C7.44285785,39.4673589 7.51940997,38.6336676 8.08083106,38.1666783 L18.6130985,29.4059532 Z M2.86905844,14.684885 C2.86905844,11.4261537 5.51527978,8.8191467 8.83694012,8.8191467 L45.1485996,8.8191467 C48.4715429,8.8191467 51.1310192,11.427824 51.1307616,14.684885 L51.1307616,39.3210651 C51.1307616,42.5774559 48.4718607,45.1808533 45.1484013,45.1808533 L8.83694012,45.1808533 C5.51475406,45.1808533 2.86905844,42.5790785 2.86905844,39.3212634 L2.86905844,14.684885 Z M5.51354634,14.684885 L5.51354634,39.3212634 C5.51354634,41.1085674 6.96544712,42.5363654 8.83694012,42.5363654 L45.1484013,42.5363654 C47.023691,42.5363654 48.4862737,41.1043136 48.4862737,39.3210651 L48.4862737,14.6847804 C48.4864149,12.8997922 47.0222908,11.4636346 45.1485996,11.4636346 L8.83694012,11.4636346 C6.96702546,11.4636346 5.51354634,12.8955746 5.51354634,14.684885 Z" id="Email" fill="#FFFFFF" fill-rule="nonzero"></path>
                <rect id="Area" x="0" y="0" width="54" height="54"></rect>
            </g>
        </g>
    </g>
</svg>