<?xml version="1.0" encoding="UTF-8"?>
<svg width="50px" height="46px" viewBox="0 0 50 46" version="1.1" xmlns="http://www.w3.org/2000/svg" xmlns:xlink="http://www.w3.org/1999/xlink">
    <!-- Generator: Sketch 52.5 (67469) - http://www.bohemiancoding.com/sketch -->
    <title>❤️ Heart</title>
    <desc>Created with Sketch.</desc>
    <g id="Hephestos-Misc-Icons" stroke="none" stroke-width="1" fill="none" fill-rule="evenodd">
        <g transform="translate(-658.000000, -215.000000)" id="❤️-Heart">
            <g transform="translate(656.000000, 209.720769)">
                <path d="M27.0181649,11.7548418 L28.9181548,9.68257782 C34.0824676,4.04828724 42.4554827,4.04828724 47.6203487,9.68268653 C52.7852882,15.317166 52.7851479,24.4520507 47.6199205,30.0861021 L29.2694476,50.1039677 C28.0269786,51.4593321 26.0102315,51.4599216 24.7671976,50.1039833 L6.41611936,30.0860814 C1.25126003,24.4516894 1.25126003,15.3175249 6.41605921,9.68319855 C11.5803085,4.04873 19.9539528,4.04873 25.1187557,9.68306045 L27.0181649,11.7548418 Z M30.7448065,11.6754188 L27.0180985,15.7400315 L26.1048425,14.7438971 L23.2921108,11.6759089 C19.1361263,7.14210768 12.3982678,7.14210768 8.2428307,11.6759089 C4.08683619,16.2097211 4.08683619,23.5594932 8.24279748,28.0932692 L26.5938425,48.1111348 C26.8278029,48.3663457 27.2089375,48.3662343 27.4427742,48.1111503 L45.7932883,28.0932398 C49.9495654,23.5597164 49.9496783,16.2093253 45.7936374,11.6754625 C41.6376495,7.14165763 34.9003894,7.14165763 30.7448065,11.6754188 Z" id="Heart" fill="#FFFFFF" fill-rule="nonzero"></path>
                <polygon id="Area" points="2.75923757 0.163153984 51.2814758 0.163153984 51.2814758 53.0965048 2.75923757 53.0965048"></polygon>
            </g>
        </g>
    </g>
</svg>