<?xml version="1.0" encoding="UTF-8"?>
<svg width="47px" height="52px" viewBox="0 0 47 52" version="1.1" xmlns="http://www.w3.org/2000/svg" xmlns:xlink="http://www.w3.org/1999/xlink">
    <!-- Generator: Sketch 52.5 (67469) - http://www.bohemiancoding.com/sketch -->
    <title>🔬 Nuclear</title>
    <desc>Created with Sketch.</desc>
    <g id="Hephestos-Misc-Icons" stroke="none" stroke-width="1" fill="none" fill-rule="evenodd">
        <g transform="translate(-316.000000, -70.000000)" id="🔬-Nuclear">
            <g transform="translate(312.488000, 69.019231)">
                <path d="M26.9481905,28.9551197 C27.9662591,28.9551197 28.7915668,28.129812 28.7915668,27.1117434 C28.7915668,26.0936748 27.9662591,25.2683672 26.9481905,25.2683672 C25.9301219,25.2683672 25.1048143,26.0936748 25.1048143,27.1117434 C25.1048143,28.129812 25.9301219,28.9551197 26.9481905,28.9551197 Z M27.0293787,51.4170518 C33.0492187,51.4170518 37.9292632,40.5348129 37.9292632,27.1108911 C37.9292632,13.6869692 33.0492187,2.8047304 27.0293787,2.8047304 C21.0095387,2.8047304 16.1294942,13.6869692 16.1294942,27.1108911 C16.1294942,40.5348129 21.0095387,51.4170518 27.0293787,51.4170518 Z M48.0778499,14.958355 C45.0679299,9.74517355 33.2038888,10.9601744 21.5787725,17.6721353 C9.95365612,24.3840963 2.96965957,34.0513342 5.97957956,39.2645157 C8.98949955,44.4776971 20.8535406,43.2626962 32.478657,36.5507353 C44.1037733,29.8387744 51.0877698,20.1715364 48.0778499,14.958355 Z M5.98069445,14.9570534 C2.97077446,20.1702348 9.95477102,29.8374728 21.5798874,36.5494337 C33.2050037,43.2613947 45.0690448,44.4763955 48.0789648,39.2632141 C51.0888847,34.0500327 44.1048882,24.3827947 32.4797719,17.6708338 C20.8546555,10.9588728 8.99061445,9.74387198 5.98069445,14.9570534 Z" id="Nuclear-" stroke="#FFFFFF" stroke-width="2.23439986"></path>
                <polygon id="Area" points="0.114928615 0.159424615 53.9487748 0.159424615 53.9487748 53.9932708 0.114928615 53.9932708"></polygon>
            </g>
        </g>
    </g>
</svg>