<?xml version="1.0" encoding="UTF-8"?>
<svg width="46px" height="50px" viewBox="0 0 46 50" version="1.1" xmlns="http://www.w3.org/2000/svg" xmlns:xlink="http://www.w3.org/1999/xlink">
    <!-- Generator: Sketch 52.5 (67469) - http://www.bohemiancoding.com/sketch -->
    <title>🍕 Pizza</title>
    <desc>Created with Sketch.</desc>
    <g id="Hephestos-Misc-Icons" stroke="none" stroke-width="1" fill="none" fill-rule="evenodd">
        <g transform="translate(-668.000000, -349.000000)" id="🍕-Pizza">
            <g transform="translate(664.000000, 346.960001)">
                <path d="M10.798272,3.463776 L10.27728,8.115552 L5.585328,49.985856 L44.10072,32.910408 L48.379896,31.01328 C41.453424,15.355656 26.839512,5.24232 10.798272,3.463776 L10.798272,3.463776 Z M7.680744,31.250232 C9.720432,32.112072 11.151648,34.131024 11.151648,36.48456 C11.151648,39.279816 9.132264,41.603544 6.472872,42.076368 M19.588176,26.886168 C22.7249987,26.886168 25.267896,24.3432707 25.267896,21.206448 C25.267896,18.0696253 22.7249987,15.526728 19.588176,15.526728 C16.4513533,15.526728 13.908456,18.0696253 13.908456,21.206448 C13.908456,24.3432707 16.4513533,26.886168 19.588176,26.886168 Z M24.057648,41.791896 C21.96612,38.037168 24.67584,33.352128 29.02284,33.352128 C31.522608,33.352128 33.645024,34.966944 34.404264,37.21032 M10.27728,8.115768 C33.36552,10.388304 35.662464,26.361504 44.100504,32.910192" id="Pizza" stroke="#FFFFFF" stroke-width="2.5"></path>
                <polygon id="Area" points="0.030672 0.074736 51.870672 0.074736 51.870672 51.914736 0.030672 51.914736"></polygon>
            </g>
        </g>
    </g>
</svg>