<?xml version="1.0" encoding="UTF-8"?>
<svg width="55px" height="40px" viewBox="0 0 55 40" version="1.1" xmlns="http://www.w3.org/2000/svg" xmlns:xlink="http://www.w3.org/1999/xlink">
    <!-- Generator: Sketch 52.5 (67469) - http://www.bohemiancoding.com/sketch -->
    <title>🌎 Planet</title>
    <desc>Created with Sketch.</desc>
    <g id="Hephestos-Misc-Icons" stroke="none" stroke-width="1" fill="none" fill-rule="evenodd">
        <g transform="translate(-198.000000, -76.000000)" id="🌎-Planet">
            <g transform="translate(198.244000, 69.019231)">
                <path d="M19.6964755,43.6760283 C30.9382492,49.1198539 44.3078005,41.8360708 45.8738244,29.0293544 M44.9326387,22.1486432 C43.9355318,18.1647761 41.7162469,14.8377845 38.8021066,12.4377171 C34.4340158,8.8402058 28.6367,7.44640561 23.031411,8.90330351 C15.5435195,10.8489732 10.3809783,17.3176658 9.59369135,24.709751 C8.91478055,31.0802654 11.4832262,37.219814 16.4105288,41.1328138 C26.0613219,37.9915837 37.5773867,31.5612678 45.3857851,24.9009277 C45.2970507,23.98554 45.1627936,23.0670916 44.9326387,22.1486432 L44.9326387,22.1486432 Z M43.133918,11.256754 C54.4112779,8.77334106 56.8946864,13.4275036 48.7177166,21.8034893 C47.7351677,22.8102274 46.6218279,23.8468663 45.3857851,24.9009277 M6.28810289,31.7748111 C-2.05270209,40.2727544 0.546708225,44.9683542 12.0660081,42.3453258 C13.4256783,42.0359587 14.8796288,41.6310032 16.4102977,41.1328138 M17.8829657,27.527723 C19.5073326,27.527723 20.8241422,26.186068 20.8241422,24.5310526 C20.8241422,22.8760373 19.5073326,21.5343822 17.8829657,21.5343822 C16.2585987,21.5343822 14.9417892,22.8760373 14.9417892,24.5310526 C14.9417892,26.186068 16.2585987,27.527723 17.8829657,27.527723 Z M23.8695323,19.0673119 C24.9598626,19.0673119 25.84375,18.1667474 25.84375,17.0558448 C25.84375,15.9449422 24.9598626,15.0443777 23.8695323,15.0443777 C22.7792019,15.0443777 21.8953146,15.9449422 21.8953146,17.0558448 C21.8953146,18.1667474 22.7792019,19.0673119 23.8695323,19.0673119 Z" id="Planet" stroke="#FFFFFF" stroke-width="2.35199989"></path>
                <polygon id="Area" points="1.05672091 0.00695106301 53.8748341 0.00695106301 53.8748341 53.8216324 1.05672091 53.8216324"></polygon>
            </g>
        </g>
    </g>
</svg>