<?xml version="1.0" encoding="UTF-8"?>
<svg width="48px" height="48px" viewBox="0 0 48 48" version="1.1" xmlns="http://www.w3.org/2000/svg" xmlns:xlink="http://www.w3.org/1999/xlink">
    <!-- Generator: Sketch 52.5 (67469) - http://www.bohemiancoding.com/sketch -->
    <title>🎚 Settings</title>
    <desc>Created with Sketch.</desc>
    <g id="Hephestos-Misc-Icons" stroke="none" stroke-width="1" fill="none" fill-rule="evenodd">
        <g transform="translate(-431.000000, -347.000000)" id="🎚-Settings">
            <g transform="translate(428.000000, 344.960001)">
                <path d="M49.9402094,7.47636086 L50.0604518,43.3538294 C50.0604518,46.5054423 47.5053471,49.0602509 44.3534593,49.0602509 L9.64675218,49.0602509 C6.49486442,49.0602509 3.93975971,46.5054423 3.93975971,43.3538294 L3.93975971,8.6463609 C3.93975971,5.49459468 6.4948274,2.93974914 9.64675218,2.93974914 L44.353269,2.93974914 C47.1041663,2.93974914 49.4004239,4.8858338 49.9402094,7.47636086 Z M47.7202613,8.6463609 C47.7202613,6.78698659 46.2128929,5.27974923 44.353269,5.27974923 L9.64675218,5.27974923 C7.78712822,5.27974923 6.27975981,6.78698659 6.27975981,8.6463609 L6.27975981,43.3538294 C6.27975981,45.2130352 7.78715007,46.7202508 9.64675218,46.7202508 L44.3534593,46.7202508 C46.2130614,46.7202508 47.7204517,45.2130352 47.7204517,43.3538294 L47.7204517,9.81636095 L47.7202613,8.6463609 Z M16.5244786,21.1453971 C13.7079502,21.1453971 11.4247027,18.8621497 11.4247027,16.0456212 C11.4247027,13.2290927 13.7079502,10.9458452 16.5244786,10.9458452 C19.3410071,10.9458452 21.6242546,13.2290927 21.6242546,16.0456212 C21.6242546,18.8621497 19.3410071,21.1453971 16.5244786,21.1453971 Z M16.5244786,18.805397 C18.0486607,18.805397 19.2842545,17.5698033 19.2842545,16.0456212 C19.2842545,14.5214391 18.0486607,13.2858453 16.5244786,13.2858453 C15.0002965,13.2858453 13.7647028,14.5214391 13.7647028,16.0456212 C13.7647028,17.5698033 15.0002965,18.805397 16.5244786,18.805397 Z M27.1762747,38.7107306 C24.3597462,38.7107306 22.0764987,36.4274832 22.0764987,33.6109547 C22.0764987,30.7944262 24.3597462,28.5111787 27.1762747,28.5111787 C29.9928032,28.5111787 32.2760506,30.7944262 32.2760506,33.6109547 C32.2760506,36.4274832 29.9928032,38.7107306 27.1762747,38.7107306 Z M27.1762747,36.3707305 C28.7004568,36.3707305 29.9360505,35.1351368 29.9360505,33.6109547 C29.9360505,32.0867726 28.7004568,30.8511788 27.1762747,30.8511788 C25.6520926,30.8511788 24.4164988,32.0867726 24.4164988,33.6109547 C24.4164988,35.1351368 25.6520926,36.3707305 27.1762747,36.3707305 Z M37.4306199,26.8068122 C34.6140914,26.8068122 32.330844,24.5235648 32.330844,21.7070363 C32.330844,18.8905078 34.6140914,16.6072603 37.4306199,16.6072603 C40.2471484,16.6072603 42.5303959,18.8905078 42.5303959,21.7070363 C42.5303959,24.5235648 40.2471484,26.8068122 37.4306199,26.8068122 Z M37.4306199,24.4668121 C38.954802,24.4668121 40.1903958,23.2312184 40.1903958,21.7070363 C40.1903958,20.1828542 38.954802,18.9472604 37.4306199,18.9472604 C35.9064378,18.9472604 34.6708441,20.1828542 34.6708441,21.7070363 C34.6708441,23.2312184 35.9064378,24.4668121 37.4306199,24.4668121 Z M36.2606199,25.6368122 C36.2606199,24.990639 36.7844467,24.4668121 37.4306199,24.4668121 C38.0767931,24.4668121 38.60062,24.990639 38.60062,25.6368122 L38.60062,40.3383046 C38.60062,40.9844778 38.0767931,41.5083047 37.4306199,41.5083047 C36.7844467,41.5083047 36.2606199,40.9844778 36.2606199,40.3383046 L36.2606199,25.6368122 Z M36.2606199,11.592408 C36.2606199,10.9462348 36.7844467,10.4224079 37.4306199,10.4224079 C38.0767931,10.4224079 38.60062,10.9462348 38.60062,11.592408 L38.60062,17.7772604 C38.60062,18.4234336 38.0767931,18.9472604 37.4306199,18.9472604 C36.7844467,18.9472604 36.2606199,18.4234336 36.2606199,17.7772604 L36.2606199,11.592408 Z M15.3544786,20.8752068 C15.3544786,20.2290336 15.8783055,19.7052067 16.5244786,19.7052067 C17.1706518,19.7052067 17.6944787,20.2290336 17.6944787,20.8752068 L17.6944787,40.3383046 C17.6944787,40.9844778 17.1706518,41.5083047 16.5244786,41.5083047 C15.8783055,41.5083047 15.3544786,40.9844778 15.3544786,40.3383046 L15.3544786,20.8752068 Z M26.0062746,37.5407306 C26.0062746,36.8945574 26.5301015,36.3707305 27.1762747,36.3707305 C27.8224479,36.3707305 28.3462747,36.8945574 28.3462747,37.5407306 L28.3462747,40.3383046 C28.3462747,40.9844778 27.8224479,41.5083047 27.1762747,41.5083047 C26.5301015,41.5083047 26.0062746,40.9844778 26.0062746,40.3383046 L26.0062746,37.5407306 Z M26.0062746,11.592408 C26.0062746,10.9462348 26.5301015,10.4224079 27.1762747,10.4224079 C27.8224479,10.4224079 28.3462747,10.9462348 28.3462747,11.592408 L28.3462747,29.6813691 C28.3462747,30.3275423 27.8224479,30.8513692 27.1762747,30.8513692 C26.5301015,30.8513692 26.0062746,30.3275423 26.0062746,29.6813691 L26.0062746,11.592408 Z" id="Settings" fill="#FFFFFF" fill-rule="nonzero"></path>
                <rect id="Area" x="0" y="0" width="54" height="54"></rect>
            </g>
        </g>
    </g>
</svg>