<?xml version="1.0" encoding="UTF-8"?>
<svg width="54px" height="52px" viewBox="0 0 54 52" version="1.1" xmlns="http://www.w3.org/2000/svg" xmlns:xlink="http://www.w3.org/1999/xlink">
    <!-- Generator: Sketch 52.5 (67469) - http://www.bohemiancoding.com/sketch -->
    <title>⭐️ Star</title>
    <desc>Created with Sketch.</desc>
    <g id="Hephestos-Misc-Icons" stroke="none" stroke-width="1" fill="none" fill-rule="evenodd">
        <g transform="translate(-428.000000, -211.000000)" id="⭐️-Star">
            <g transform="translate(428.000000, 210.277471)">
                <path d="M50.5311275,18.7220812 C51.3041679,18.7378867 51.9181602,19.3839005 51.9025176,20.1649934 C51.886875,20.9460863 51.2475211,21.5664743 50.4744807,21.5506688 L49.4746854,21.5302271 C48.701645,21.5144216 48.0876528,20.8684078 48.1032953,20.0873149 C48.1189379,19.306222 48.7582918,18.6858339 49.5313322,18.7016395 L50.5311275,18.7220812 Z M48.5315368,18.6811977 C49.3045772,18.6970033 49.9185695,19.3430171 49.9029269,20.12411 C49.8872844,20.9052029 49.2479305,21.5255909 48.4748901,21.5097854 L47.4750947,21.4893436 C46.7020543,21.4735381 46.0880621,20.8275243 46.1037047,20.0464314 C46.1193472,19.2653385 46.7587011,18.6449505 47.5317415,18.660756 L48.5315368,18.6811977 Z M46.5319462,18.6403143 C47.3049866,18.6561198 47.9189788,19.3021336 47.9033363,20.0832265 C47.8876937,20.8643194 47.2483398,21.4847074 46.4752994,21.4689019 L45.4755041,21.4484602 C44.7024637,21.4326547 44.0884714,20.7866409 44.104114,20.005548 C44.1197566,19.2244551 44.7591104,18.6040671 45.5321508,18.6198726 L46.5319462,18.6403143 Z M44.5323555,18.5994308 C45.3053959,18.6152364 45.9193882,19.2612502 45.9037456,20.0423431 C45.888103,20.823436 45.2487492,21.443824 44.4757087,21.4280185 L43.4759134,21.4075768 C42.702873,21.3917712 42.0888808,20.7457574 42.1045233,19.9646645 C42.1201659,19.1835716 42.7595198,18.5631836 43.5325602,18.5789891 L44.5323555,18.5994308 Z M42.5327648,18.5585474 C43.3058052,18.5743529 43.9197975,19.2203667 43.9041549,20.0014596 C43.8885124,20.7825525 43.2491585,21.4029405 42.4761181,21.387135 L41.4763228,21.3666933 C40.7032824,21.3508878 40.0892901,20.704874 40.1049327,19.9237811 C40.1205752,19.1426882 40.7599291,18.5223002 41.5329695,18.5381057 L42.5327648,18.5585474 Z M40.5331742,18.517664 C41.3062146,18.5334695 41.9202068,19.1794833 41.9045643,19.9605762 C41.8889217,20.7416691 41.2495678,21.3620571 40.4765274,21.3462516 L39.4767321,21.3258099 C38.7036917,21.3100043 38.0896994,20.6639905 38.105342,19.8828976 C38.1209846,19.1018047 38.7603384,18.4814167 39.5333788,18.4972222 L40.5331742,18.517664 Z M38.5335835,18.4767805 C39.3066239,18.492586 39.9206162,19.1385998 39.9049736,19.9196927 C39.889331,20.7007856 39.2499772,21.3211736 38.4769368,21.3053681 L37.4771414,21.2849264 C36.704101,21.2691209 36.0901088,20.6231071 36.1057513,19.8420142 C36.1213939,19.0609213 36.7607478,18.4405333 37.5337882,18.4563388 L38.5335835,18.4767805 Z M36.5339928,18.4358971 C37.3070332,18.4517026 37.9210255,19.0977164 37.9053829,19.8788093 C37.8897404,20.6599022 37.2503865,21.2802902 36.4773461,21.2644847 L35.4775508,21.244043 C34.7045104,21.2282374 34.0905181,20.5822236 34.1061607,19.8011307 C34.1218032,19.0200378 34.7611571,18.3996498 35.5341975,18.4154553 L36.5339928,18.4358971 Z M34.5344022,18.3950136 C35.3074426,18.4108191 35.9214348,19.0568329 35.9057923,19.8379258 C35.8901497,20.6190187 35.2507958,21.2394068 34.4777554,21.2236012 L32.7217481,21.1876981 L32.328787,20.0577596 C32.0724543,19.3206888 32.4560097,18.5132115 33.1854819,18.2542087 C33.6048853,18.1052974 34.0473221,18.1701089 34.396386,18.3921917 L34.5344022,18.3950136 Z M34.6389171,18.1665525 C34.8952498,18.9036234 34.5116945,19.7111007 33.7822222,19.9701035 C33.05275,20.2291063 32.2535973,19.8415556 31.9972646,19.1044847 L31.6657422,18.1512098 C31.4094095,17.4141389 31.7929648,16.6066616 32.522437,16.3476588 C33.2519093,16.088656 34.051062,16.4762067 34.3073947,17.2132776 L34.6389171,18.1665525 Z M33.9758723,16.2600027 C34.232205,16.9970736 33.8486496,17.8045509 33.1191774,18.0635537 C32.3897052,18.3225565 31.5905524,17.9350058 31.3342197,17.1979349 L31.0026973,16.24466 C30.7463646,15.5075891 31.12992,14.7001118 31.8593922,14.441109 C32.5888644,14.1821062 33.3880172,14.5696569 33.6443499,15.3067278 L33.9758723,16.2600027 Z M33.3128274,14.3534529 C33.5691601,15.0905237 33.1856048,15.898001 32.4561326,16.1570038 C31.7266603,16.4160067 30.9275076,16.0284559 30.6711749,15.2913851 L30.3396525,14.3381101 C30.0833198,13.6010393 30.4668751,12.793562 31.1963474,12.5345592 C31.9258196,12.2755563 32.7249723,12.6631071 32.981305,13.400178 L33.3128274,14.3534529 Z M32.6497826,12.446903 C32.9061153,13.1839739 32.5225599,13.9914512 31.7930877,14.250454 C31.0636155,14.5094568 30.2644627,14.1219061 30.00813,13.3848352 L29.6766076,12.4315603 C29.4202749,11.6944894 29.8038303,10.8870121 30.5333025,10.6280093 C31.2627747,10.3690065 32.0619275,10.7565572 32.3182602,11.4936281 L32.6497826,12.446903 Z M31.9867378,10.5403532 C32.2430704,11.2774241 31.8595151,12.0849014 31.1300429,12.3439042 C30.4005707,12.602907 29.6014179,12.2153563 29.3450852,11.4782854 L29.0135628,10.5250105 C28.7572301,9.78793959 29.1407855,8.98046231 29.8702577,8.72145949 C30.5997299,8.46245667 31.3988826,8.85000741 31.6552153,9.58707829 L31.9867378,10.5403532 Z M31.3236929,8.63380337 C31.5800256,9.37087425 31.1964702,10.1783515 30.466998,10.4373543 C29.7375258,10.6963572 28.9383731,10.3088064 28.6820404,9.57173555 L28.3505179,8.61846064 C28.0941853,7.88138976 28.4777406,7.07391248 29.2072128,6.81490966 C29.936685,6.55590684 30.7358378,6.94345757 30.9921705,7.68052845 L31.3236929,8.63380337 Z M30.6606481,6.72725353 C30.9169808,7.46432441 30.5334254,8.27180169 29.8039532,8.53080451 C29.074481,8.78980733 28.2753282,8.4022566 28.0189955,7.66518572 L27.6874731,6.7119108 C27.4311404,5.97483992 27.8146958,5.16736265 28.544168,4.90835983 C29.2736402,4.64935701 30.072793,5.03690774 30.3291257,5.77397862 L30.6606481,6.72725353 Z M29.9976032,4.8207037 C30.2539359,5.55777458 29.8703806,6.36525186 29.1409083,6.62425468 C28.4114361,6.8832575 27.6122834,6.49570676 27.3559507,5.75863588 L27.0244283,4.80536097 C26.7680956,4.06829009 27.1516509,3.26081281 27.8811231,3.00180999 C28.6105954,2.74280717 29.4097481,3.13035791 29.6660808,3.86742878 L29.9976032,4.8207037 Z M28.9586263,2.49150565 C29.4719976,3.07570307 29.419464,3.96979342 28.8412892,4.48851234 C28.2631145,5.00723126 27.3782415,4.95415045 26.8648702,4.36995303 C26.8561611,4.36004239 26.8403009,4.35153067 26.8128268,4.34712711 C26.0491763,4.22472881 25.5283157,3.49999578 25.6494522,2.72839057 C25.7705886,1.95678536 26.4878502,1.43049917 27.2515007,1.55289746 C27.9069091,1.65794665 28.5110348,1.98216321 28.9586263,2.49150565 Z M26.718257,4.32185813 C26.7139232,4.33288927 26.7107603,4.34135499 26.7085675,4.34778525 L26.718257,4.32185813 Z M26.6345264,4.54590378 C26.3613812,5.27678353 25.5535664,5.64554417 24.8302214,5.36955372 C24.1068765,5.09356327 23.7419176,4.2773337 24.0150627,3.54645395 L24.1303123,3.24506959 C24.3800389,2.68033377 24.7869498,2.22484397 25.2975886,1.92185454 C25.9643258,1.5262436 26.8222229,1.75166503 27.2137553,2.42534739 C27.6052878,3.09902975 27.3821903,3.96586324 26.7154531,4.36147419 C26.7062989,4.3669059 26.6999612,4.37302241 26.7085675,4.34778525 L26.6345264,4.54590378 Z M23.6724762,4.53059322 C23.9287627,3.79350597 24.7278913,3.4059042 25.4573797,3.66486043 C26.1868681,3.92381666 26.570474,4.73126943 26.3141874,5.46835668 L25.9827246,6.42165277 C25.726438,7.15874002 24.9273095,7.5463418 24.1978211,7.28738557 C23.4683327,7.02842934 23.0847268,6.22097656 23.3410134,5.48388931 L23.6724762,4.53059322 Z M23.0095506,6.4371854 C23.2658372,5.70009815 24.0649657,5.31249638 24.7944541,5.57145261 C25.5239425,5.83040884 25.9075484,6.63786161 25.6512618,7.37494886 L25.319799,8.32824495 C25.0635125,9.0653322 24.2643839,9.45293397 23.5348955,9.19397775 C22.8054071,8.93502152 22.4218012,8.12756874 22.6780878,7.39048149 L23.0095506,6.4371854 Z M22.346625,8.34377758 C22.6029116,7.60669033 23.4020401,7.21908856 24.1315285,7.47804478 C24.8610169,7.73700101 25.2446228,8.54445379 24.9883363,9.28154104 L24.6568735,10.2348371 C24.4005869,10.9719244 23.6014584,11.3595262 22.87197,11.1005699 C22.1424815,10.8416137 21.7588757,10.0341609 22.0151622,9.29707367 L22.346625,8.34377758 Z M21.6836995,10.2503698 C21.939986,9.51328251 22.7391146,9.12568073 23.468603,9.38463696 C24.1980914,9.64359319 24.5816973,10.451046 24.3254107,11.1881332 L23.9939479,12.1414293 C23.7376613,12.8785166 22.9385328,13.2661183 22.2090444,13.0071621 C21.479556,12.7482059 21.0959501,11.9407531 21.3522367,11.2036658 L21.6836995,10.2503698 Z M21.0207739,12.1569619 C21.2770605,11.4198747 22.076189,11.0322729 22.8056774,11.2912291 C23.5351658,11.5501854 23.9187717,12.3576381 23.6624851,13.0947254 L23.3310223,14.0480215 C23.0747358,14.7851087 22.2756072,15.1727105 21.5461188,14.9137543 C20.8166304,14.6547981 20.4330245,13.8473453 20.6893111,13.110258 L21.0207739,12.1569619 Z M20.3578483,14.0635541 C20.6141349,13.3264669 21.4132634,12.9388651 22.1427518,13.1978213 C22.8722402,13.4567775 23.2558461,14.2642303 22.9995595,15.0013176 L22.6680968,15.9546137 C22.4118102,16.6917009 21.6126817,17.0793027 20.8831932,16.8203465 C20.1537048,16.5613902 19.770099,15.7539375 20.0263855,15.0168502 L20.3578483,14.0635541 Z M19.6949227,15.9701463 C19.9512093,15.233059 20.7503378,14.8454573 21.4798263,15.1044135 C22.2093147,15.3633697 22.5929206,16.1708225 22.336634,16.9079098 L22.0051712,17.8612058 C21.7488846,18.5982931 20.9497561,18.9858949 20.2202677,18.7269386 C19.4907793,18.4679824 19.1071734,17.6605296 19.36346,16.9234424 L19.6949227,15.9701463 Z M19.0319972,17.8767385 C19.2882838,17.1396512 20.0874123,16.7520494 20.8169007,17.0110057 C21.5463891,17.2699619 21.929995,18.0774147 21.6737084,18.8145019 L21.3422456,19.767798 C21.085959,20.5048853 20.2868305,20.892487 19.5573421,20.6335308 C18.8278537,20.3745746 18.4442478,19.5671218 18.7005344,18.8300346 L19.0319972,17.8767385 Z M19.3398395,18.3887967 C20.11288,18.3729929 20.7522325,18.9933823 20.7678734,19.7744752 C20.7835144,20.5555681 20.1695207,21.2015806 19.3964803,21.2173845 L18.3966849,21.237824 C17.6236445,21.2536278 16.9842919,20.6332385 16.968651,19.8521455 C16.9530101,19.0710526 17.5670037,18.4250401 18.3400442,18.4092363 L19.3398395,18.3887967 Z M17.3402488,18.4296758 C18.1132892,18.413872 18.7526418,19.0342614 18.7682827,19.8153543 C18.7839236,20.5964473 18.16993,21.2424597 17.3968895,21.2582636 L16.3970942,21.2787031 C15.6240537,21.294507 14.9847012,20.6741176 14.9690603,19.8930246 C14.9534194,19.1119317 15.567413,18.4659192 16.3404534,18.4501154 L17.3402488,18.4296758 Z M15.340658,18.4705549 C16.1136985,18.4547511 16.753051,19.0751405 16.7686919,19.8562334 C16.7843328,20.6373264 16.1703392,21.2833388 15.3972988,21.2991427 L14.3975034,21.3195822 C13.624463,21.3353861 12.9851104,20.7149967 12.9694695,19.9339037 C12.9538286,19.1528108 13.5678222,18.5067983 14.3408627,18.4909945 L15.340658,18.4705549 Z M13.3410673,18.511434 C14.1141077,18.4956302 14.7534603,19.1160196 14.7691012,19.8971125 C14.7847421,20.6782055 14.1707485,21.3242179 13.397708,21.3400218 L12.3979127,21.3604613 C11.6248722,21.3762652 10.9855197,20.7558758 10.9698788,19.9747828 C10.9542378,19.1936899 11.5682315,18.5476774 12.3412719,18.5318736 L13.3410673,18.511434 Z M11.3414765,18.5523131 C12.114517,18.5365093 12.7538695,19.1568987 12.7695104,19.9379916 C12.7851513,20.7190846 12.1711577,21.3650971 11.3981173,21.3809009 L10.3983219,21.4013404 C9.62528147,21.4171443 8.98592891,20.7967549 8.970288,20.0156619 C8.95464709,19.234569 9.56864072,18.5885565 10.3416812,18.5727527 L11.3414765,18.5523131 Z M9.34188578,18.5931923 C10.1149262,18.5773884 10.7542788,19.1977778 10.7699197,19.9788708 C10.7855606,20.7599637 10.171567,21.4059762 9.39852653,21.42178 L8.39873115,21.4422196 C7.62569072,21.4580234 6.98633816,20.837634 6.97069725,20.0565411 C6.95505634,19.2754481 7.56904997,18.6294356 8.34209041,18.6136318 L9.34188578,18.5931923 Z M7.34229503,18.6340714 C8.11533546,18.6182675 8.75468802,19.2386569 8.77032893,20.0197499 C8.78596984,20.8008428 8.17197621,21.4468553 7.39893578,21.4626591 L6.3991404,21.4830987 C5.62609996,21.4989025 4.98674741,20.8785131 4.9711065,20.0974202 C4.95546559,19.3163272 5.56945922,18.6703148 6.34249965,18.6545109 L7.34229503,18.6340714 Z M5.34270428,18.6749505 C6.11574471,18.6591466 6.75509727,19.279536 6.77073818,20.060629 C6.78637909,20.8417219 6.17238546,21.4877344 5.39934502,21.5035382 L4.39954965,21.5239778 C3.62650921,21.5397816 2.98715666,20.9193922 2.97151575,20.1382993 C2.95587484,19.3572063 3.56986847,18.7111939 4.3429089,18.69539 L5.34270428,18.6749505 Z M3.34311353,18.7158296 C4.11615396,18.7000257 4.75550651,19.3204151 4.77114742,20.1015081 C4.78678833,20.882601 4.17279471,21.5286135 3.39975427,21.5444173 L3.09566231,21.5506331 C3.06502019,21.5512971 3.04894803,21.5554318 3.03853553,21.5609092 C2.35271458,21.92168 1.50729942,21.6523835 1.15024792,20.9594186 C0.793196414,20.2664536 1.05971671,19.4122321 1.74553766,19.0514613 C2.13845834,18.8447684 2.57655138,18.7320659 3.03732086,18.7220811 L3.34311353,18.7158296 Z M0.372126779,20.6307904 C0.642945716,19.8990274 1.44958339,19.5276453 2.17380246,19.8012852 C2.89802153,20.0749252 3.26557495,20.8899654 2.99475601,21.6217284 C2.98243304,21.6550255 2.98136293,21.6866477 2.9874966,21.7060623 C3.22262791,22.4503146 2.8161238,23.2462474 2.07954426,23.483828 C1.34296472,23.7214086 0.555237435,23.31067 0.320106125,22.5664178 C0.119924624,21.9327908 0.143037451,21.2497984 0.372126779,20.6307904 Z M1.49713203,24.1303224 C0.878643613,23.6614758 0.753416684,22.7747938 1.21742986,22.1498628 C1.68144303,21.5249318 2.55898396,21.3984004 3.17747238,21.867247 L3.9773812,22.4736198 C4.59586962,22.9424665 4.72109655,23.8291485 4.25708338,24.4540795 C3.7930702,25.0790105 2.91552927,25.2055419 2.29704085,24.7366952 L1.49713203,24.1303224 Z M3.09694968,25.343068 C2.47846126,24.8742214 2.35323433,23.9875394 2.8172475,23.3626084 C3.28126067,22.7376774 4.1588016,22.611146 4.77729002,23.0799927 L5.57719884,23.6863655 C6.19568726,24.1552121 6.32091419,25.0418941 5.85690102,25.6668251 C5.39288785,26.2917561 4.51534692,26.4182875 3.8968585,25.9494409 L3.09694968,25.343068 Z M4.69676732,26.5558137 C4.0782789,26.086967 3.95305197,25.200285 4.41706514,24.575354 C4.88107832,23.950423 5.75861925,23.8238917 6.37710767,24.2927383 L7.17701649,24.8991111 C7.79550491,25.3679578 7.92073184,26.2546397 7.45671866,26.8795708 C6.99270549,27.5045018 6.11516456,27.6310331 5.49667614,27.1621865 L4.69676732,26.5558137 Z M6.29658496,27.7685593 C5.67809654,27.2997127 5.55286961,26.4130307 6.01688278,25.7880997 C6.48089596,25.1631687 7.35843689,25.0366373 7.97692531,25.5054839 L8.77683413,26.1118568 C9.39532255,26.5807034 9.52054948,27.4673854 9.0565363,28.0923164 C8.59252313,28.7172474 7.7149822,28.8437788 7.09649378,28.3749321 L6.29658496,27.7685593 Z M7.8964026,28.9813049 C7.27791418,28.5124583 7.15268725,27.6257763 7.61670043,27.0008453 C8.0807136,26.3759143 8.95825453,26.2493829 9.57674295,26.7182296 L10.3766518,27.3246024 C10.9951402,27.793449 11.1203671,28.680131 10.6563539,29.305062 C10.1923408,29.929993 9.31479984,30.0565244 8.69631142,29.5876778 L7.8964026,28.9813049 Z M9.49622024,30.1940506 C8.87773182,29.7252039 8.75250489,28.838522 9.21651807,28.213591 C9.68053124,27.5886599 10.5580722,27.4621286 11.1765606,27.9309752 L11.9764694,28.537348 C12.5949578,29.0061947 12.7201848,29.8928767 12.2561716,30.5178077 C11.7921584,31.1427387 10.9146175,31.26927 10.2961291,30.8004234 L9.49622024,30.1940506 Z M11.0960379,31.4067962 C10.4775495,30.9379496 10.3523225,30.0512676 10.8163357,29.4263366 C11.2803489,28.8014056 12.1578898,28.6748742 12.7763782,29.1437209 L13.5762871,29.7500937 C14.1947755,30.2189403 14.3200024,31.1056223 13.8559892,31.7305533 C13.3919761,32.3554843 12.5144351,32.4820157 11.8959467,32.013169 L11.0960379,31.4067962 Z M12.6958555,32.6195419 C12.0773671,32.1506952 11.9521402,31.2640132 12.4161534,30.6390822 C12.8801665,30.0141512 13.7577075,29.8876198 14.3761959,30.3564665 L15.1761047,30.9628393 C15.7945931,31.431686 15.91982,32.3183679 15.4558069,32.9432989 C14.9917937,33.5682299 14.1142528,33.6947613 13.4957643,33.2259147 L12.6958555,32.6195419 Z M14.015971,31.8518279 C14.4799842,31.2268969 15.3575251,31.1003655 15.9760135,31.5692121 L17.1797264,32.4816896 L16.7526032,33.8927858 C16.5264666,34.6398783 15.7437522,35.0602869 15.0043616,34.8317947 C14.4245834,34.6526271 14.0435991,34.1276775 14.0151578,33.5491892 C13.651347,33.0590377 13.6337343,32.3666227 14.015971,31.8518279 Z M13.7825642,34.0315784 C14.0087008,33.2844859 14.7914152,32.8640773 15.5308058,33.0925695 C16.2701963,33.3210617 16.6862708,34.1119294 16.4601342,34.859022 L16.1676652,35.8252582 C15.9415286,36.5723507 15.1588142,36.9927593 14.4194236,36.7642671 C13.6800331,36.5357749 13.2639586,35.7449072 13.4900952,34.9978146 L13.7825642,34.0315784 Z M13.1976262,35.9640509 C13.4237628,35.2169583 14.2064773,34.7965497 14.9458678,35.0250419 C15.6852584,35.2535341 16.1013329,36.0444018 15.8751962,36.7914944 L15.5827272,37.7577306 C15.3565906,38.5048231 14.5738762,38.9252317 13.8344857,38.6967395 C13.0950951,38.4682473 12.6790206,37.6773796 12.9051572,36.9302871 L13.1976262,35.9640509 Z M12.6126882,37.8965233 C12.8388249,37.1494307 13.6215393,36.7290221 14.3609298,36.9575143 C15.1003204,37.1860066 15.5163949,37.9768743 15.2902583,38.7239668 L14.9977893,39.690203 C14.7716526,40.4372955 13.9889382,40.8577041 13.2495477,40.6292119 C12.5101571,40.4007197 12.0940826,39.609852 12.3202192,38.8627595 L12.6126882,37.8965233 Z M12.0277503,39.8289957 C12.2538869,39.0819031 13.0366013,38.6614945 13.7759919,38.8899867 C14.5153824,39.118479 14.9314569,39.9093467 14.7053203,40.6564392 L14.4128513,41.6226754 C14.1867147,42.3697679 13.4040002,42.7901765 12.6646097,42.5616843 C11.9252192,42.3331921 11.5091446,41.5423244 11.7352813,40.7952319 L12.0277503,39.8289957 Z M11.4428123,41.7614681 C11.6689489,41.0143756 12.4516633,40.5939669 13.1910539,40.8224592 C13.9304444,41.0509514 14.3465189,41.8418191 14.1203823,42.5889116 L13.8279133,43.5551478 C13.6017767,44.3022403 12.8190623,44.722649 12.0796717,44.4941567 C11.3402812,44.2656645 10.9242067,43.4747968 11.1503433,42.7277043 L11.4428123,41.7614681 Z M10.8578743,43.6939405 C11.0840109,42.946848 11.8667254,42.5264394 12.6061159,42.7549316 C13.3455064,42.9834238 13.761581,43.7742915 13.5354443,44.521384 L13.2429753,45.4876202 C13.0168387,46.2347128 12.2341243,46.6551214 11.4947337,46.4266292 C10.7553432,46.1981369 10.3392687,45.4072692 10.5654053,44.6601767 L10.8578743,43.6939405 Z M10.2729363,45.6264129 C10.499073,44.8793204 11.2817874,44.4589118 12.0211779,44.687404 C12.7605685,44.9158962 13.176643,45.7067639 12.9505063,46.4538564 L12.6580374,47.4200926 C12.4319007,48.1671852 11.6491863,48.5875938 10.9097958,48.3591016 C10.1704052,48.1306093 9.75433071,47.3397416 9.98046734,46.5926491 L10.2729363,45.6264129 Z M9.68799835,47.5588853 C9.91413498,46.8117928 10.6968494,46.3913842 11.4362399,46.6198764 C12.1756305,46.8483686 12.591705,47.6392363 12.3655684,48.3863288 L12.0730994,49.352565 C11.8469628,50.0996576 11.0642483,50.5200662 10.3248578,50.291574 C9.58546724,50.0630818 9.16939273,49.2722141 9.39552936,48.5251215 L9.68799835,47.5588853 Z M9.34814621,50.3516599 C9.12516342,49.6036001 9.54457061,48.8145317 10.2849184,48.5892261 C11.0252662,48.3639206 11.8061999,48.7876966 12.0291827,49.5357564 C12.0344819,49.5535341 12.05247,49.5780558 12.0816517,49.5986477 C12.7155662,50.0459652 12.8705712,50.9278299 12.4278652,51.5683476 C11.9851592,52.2088654 11.1123858,52.3654851 10.4784714,51.9181675 C9.94143831,51.5392137 9.53833236,50.9896939 9.34814621,50.3516599 Z M12.1208554,49.656998 L12.1576434,49.6318152 C12.1516815,49.6364329 12.1404595,49.6441754 12.1208554,49.656998 Z M12.5245854,49.3806293 C13.1647125,48.9424377 14.0352006,49.1115442 14.4688748,49.7583394 C14.9025491,50.4051346 14.7351859,51.2846902 14.0950587,51.7228819 L13.6206878,52.0445555 C13.2621759,52.2595749 12.8713922,52.3918924 12.4686571,52.4374292 C11.7002546,52.5243115 11.0076353,51.9653414 10.9216488,51.1889347 C10.8356622,50.412528 11.3888696,49.712694 12.1572721,49.6258117 C12.1606534,49.6254294 12.2830911,49.5437019 12.5245854,49.3806293 Z M14.9274172,51.1438511 C14.2905775,51.5869064 13.4188525,51.4244354 12.9803648,50.780962 C12.5418772,50.1374887 12.7026732,49.2566832 13.3395128,48.8136279 L14.1631558,48.2406119 C14.7999954,47.7975566 15.6717204,47.9600276 16.1102081,48.603501 C16.5486958,49.2469743 16.3878997,50.1277798 15.7510601,50.5708351 L14.9274172,51.1438511 Z M16.5747031,49.997819 C15.9378635,50.4408743 15.0661384,50.2784033 14.6276508,49.6349299 C14.1891631,48.9914565 14.3499591,48.110651 14.9867988,47.6675958 L15.8104417,47.0945797 C16.4472813,46.6515245 17.3190064,46.8139954 17.757494,47.4574688 C18.1959817,48.1009422 18.0351857,48.9817477 17.398346,49.4248029 L16.5747031,49.997819 Z M18.221989,48.8517869 C17.5851494,49.2948421 16.7134244,49.1323711 16.2749367,48.4888977 C15.836449,47.8454244 15.9972451,46.9646189 16.6340847,46.5215636 L17.4577277,45.9485476 C18.0945673,45.5054923 18.9662923,45.6679633 19.40478,46.3114367 C19.8432676,46.9549101 19.6824716,47.8357155 19.045632,48.2787708 L18.221989,48.8517869 Z M19.8692749,47.7057547 C19.2324353,48.14881 18.3607103,47.986339 17.9222226,47.3428656 C17.483735,46.6993922 17.644531,45.8185867 18.2813706,45.3755315 L19.1050136,44.8025154 C19.7418532,44.3594602 20.6135782,44.5219312 21.0520659,45.1654045 C21.4905536,45.8088779 21.3297575,46.6896834 20.6929179,47.1327387 L19.8692749,47.7057547 Z M21.5165609,46.5597226 C20.8797212,47.0027778 20.0079962,46.8403068 19.5695086,46.1968335 C19.1310209,45.5533601 19.2918169,44.6725546 19.9286566,44.2294994 L20.7522995,43.6564833 C21.3891391,43.213428 22.2608642,43.375899 22.6993518,44.0193724 C23.1378395,44.6628458 22.9770435,45.5436513 22.3402038,45.9867065 L21.5165609,46.5597226 Z M23.1638468,45.4136904 C22.5270072,45.8567457 21.6552822,45.6942747 21.2167945,45.0508013 C20.7783068,44.407328 20.9391029,43.5265225 21.5759425,43.0834672 L22.3995854,42.5104511 C23.0364251,42.0673959 23.9081501,42.2298669 24.3466378,42.8733403 C24.7851254,43.5168136 24.6243294,44.3976191 23.9874898,44.8406744 L23.1638468,45.4136904 Z M24.8111327,44.2676583 C24.1742931,44.7107135 23.3025681,44.5482426 22.8640804,43.9047692 C22.4255928,43.2612958 22.5863888,42.3804903 23.2232284,41.9374351 L24.0468714,41.364419 C24.683711,40.9213637 25.555436,41.0838347 25.9939237,41.7273081 C26.4324114,42.3707815 26.2716153,43.251587 25.6347757,43.6946422 L24.8111327,44.2676583 Z M26.4584187,43.1216262 C25.821579,43.5646814 24.949854,43.4022104 24.5113664,42.758737 C24.0728787,42.1152637 24.2336747,41.2344582 24.8705143,40.7914029 L25.6941573,40.2183869 C26.3309969,39.7753316 27.202722,39.9378026 27.6412096,40.581276 C28.0796973,41.2247493 27.9189013,42.1055548 27.2820616,42.5486101 L26.4584187,43.1216262 Z M26.5178575,42.7086894 C25.8810013,42.2656584 25.7201724,41.3848591 26.158636,40.741369 C26.5970997,40.0978789 27.4688186,39.9353747 28.1056748,40.3784056 L28.9293391,40.9513903 C29.5661953,41.3944213 29.7270242,42.2752206 29.2885606,42.9187107 C28.850097,43.5622008 27.978378,43.724705 27.3415218,43.2816741 L26.5178575,42.7086894 Z M28.1651862,43.8546587 C27.52833,43.4116278 27.3675011,42.5308284 27.8059647,41.8873383 C28.2444284,41.2438482 29.1161473,41.081344 29.7530035,41.524375 L30.5766679,42.0973596 C31.213524,42.5403906 31.374353,43.42119 30.9358893,44.0646801 C30.4974257,44.7081702 29.6257067,44.8706744 28.9888506,44.4276434 L28.1651862,43.8546587 Z M29.8125149,45.0006281 C29.1756588,44.5575971 29.0148298,43.6767977 29.4532935,43.0333077 C29.8917571,42.3898176 30.7634761,42.2273133 31.4003322,42.6703443 L32.2239966,43.243329 C32.8608528,43.68636 33.0216817,44.5671593 32.5832181,45.2106494 C32.1447544,45.8541395 31.2730355,46.0166437 30.6361793,45.5736127 L29.8125149,45.0006281 Z M31.4598436,46.1465974 C30.8229875,45.7035664 30.6621586,44.8227671 31.1006222,44.179277 C31.5390858,43.5357869 32.4108048,43.3732827 33.047661,43.8163137 L33.8713253,44.3892983 C34.5081815,44.8323293 34.6690104,45.7131286 34.2305468,46.3566187 C33.7920831,47.0001088 32.9203642,47.1626131 32.283508,46.7195821 L31.4598436,46.1465974 Z M33.1071724,47.2925668 C32.4703162,46.8495358 32.3094873,45.9687364 32.7479509,45.3252463 C33.1864146,44.6817562 34.0581335,44.519252 34.6949897,44.962283 L35.5186541,45.5352677 C36.1555102,45.9782986 36.3163391,46.859098 35.8778755,47.5025881 C35.4394119,48.1460782 34.5676929,48.3085824 33.9308367,47.8655514 L33.1071724,47.2925668 Z M34.7545011,48.4385361 C34.1176449,47.9955051 33.956816,47.1147058 34.3952796,46.4712157 C34.8337433,45.8277256 35.7054622,45.6652214 36.3423184,46.1082523 L37.1659828,46.681237 C37.8028389,47.124268 37.9636679,48.0050673 37.5252042,48.6485574 C37.0867406,49.2920475 36.2150216,49.4545517 35.5781655,49.0115208 L34.7545011,48.4385361 Z M36.4018298,49.5845054 C35.7649737,49.1414745 35.6041447,48.2606751 36.0426084,47.617185 C36.481072,46.9736949 37.352791,46.8111907 37.9896471,47.2542217 L38.8133115,47.8272063 C39.4501677,48.2702373 39.6109966,49.1510367 39.172533,49.7945268 C38.7340693,50.4380169 37.8623504,50.6005211 37.2254942,50.1574901 L36.4018298,49.5845054 Z M38.0491586,50.7304748 C37.4123024,50.2874438 37.2514735,49.4066444 37.6899371,48.7631544 C38.1284007,48.1196643 39.0001197,47.95716 39.6369759,48.400191 L40.4606402,48.9731757 C41.0974964,49.4162067 41.2583253,50.297006 40.8198617,50.9404961 C40.381398,51.5839862 39.5096791,51.7464904 38.8728229,51.3034594 L38.0491586,50.7304748 Z M39.6964873,51.8764441 C39.0596311,51.4334131 38.8988022,50.5526138 39.3372658,49.9091237 C39.7757295,49.2656336 40.6474484,49.1031294 41.2843046,49.5461604 L41.3611797,49.5996403 C41.3910817,49.6203824 41.4054716,49.6248051 41.4189915,49.6246766 C42.1921559,49.6173258 42.8248271,50.2446692 42.8321022,51.0258874 C42.8393772,51.8071057 42.2185012,52.4463672 41.4453368,52.453718 C40.8578691,52.4593034 40.2808548,52.2819595 39.7748996,51.9309919 L39.6964873,51.8764441 Z M43.4263058,51.642676 C42.8628676,52.1776947 41.9768636,52.1498983 41.4473605,51.5805909 C40.9178574,51.0112835 40.9453673,50.1160503 41.5088055,49.5810316 C41.5307768,49.5601686 41.5404307,49.5417735 41.5421403,49.5288248 C41.6443813,48.7544322 42.3485614,48.2104091 43.1149705,48.3137151 C43.8813796,48.4170212 44.4197942,49.1285364 44.3175532,49.902929 C44.228851,50.5747758 43.9089028,51.1844209 43.4263058,51.642676 Z M44.0921713,48.2541823 C44.3184312,49.0012367 43.9024872,49.7921745 43.1631343,50.0207912 C42.4237815,50.249408 41.6409977,49.8291313 41.4147378,49.0820769 L41.1221094,48.1158899 C40.8958495,47.3688355 41.3117935,46.5778977 42.0511463,46.3492809 C42.7904991,46.1206642 43.5732829,46.5409409 43.7995428,47.2879953 L44.0921713,48.2541823 Z M43.5069144,46.3218084 C43.7331743,47.0688628 43.3172303,47.8598006 42.5778775,48.0884174 C41.8385246,48.3170342 41.0557409,47.8967574 40.829481,47.149703 L40.5368525,46.1835161 C40.3105926,45.4364617 40.7265366,44.6455239 41.4658894,44.4169071 C42.2052423,44.1882903 42.9880261,44.6085671 43.214286,45.3556215 L43.5069144,46.3218084 Z M42.9216575,44.3894346 C43.1479174,45.136489 42.7319734,45.9274268 41.9926206,46.1560436 C41.2532678,46.3846603 40.470484,45.9643836 40.2442241,45.2173292 L39.9515957,44.2511423 C39.7253358,43.5040878 40.1412798,42.7131501 40.8806326,42.4845333 C41.6199854,42.2559165 42.4027692,42.6761932 42.6290291,43.4232477 L42.9216575,44.3894346 Z M42.3364007,42.4570607 C42.5626606,43.2041152 42.1467166,43.9950529 41.4073638,44.2236697 C40.6680109,44.4522865 39.8852271,44.0320098 39.6589672,43.2849553 L39.3663388,42.3187684 C39.1400789,41.571714 39.5560229,40.7807762 40.2953757,40.5521594 C41.0347286,40.3235427 41.8175123,40.7438194 42.0437722,41.4908738 L42.3364007,42.4570607 Z M41.7511438,40.5246869 C41.9774037,41.2717413 41.5614597,42.0626791 40.8221069,42.2912959 C40.0827541,42.5199127 39.2999703,42.0996359 39.0737104,41.3525815 L38.7810819,40.3863946 C38.554822,39.6393402 38.970766,38.8484024 39.7101189,38.6197856 C40.4494717,38.3911688 41.2322555,38.8114456 41.4585154,39.5585 L41.7511438,40.5246869 Z M41.165887,38.5923131 C41.3921469,39.3393675 40.9762029,40.1303053 40.23685,40.358922 C39.4974972,40.5875388 38.7147134,40.1672621 38.4884535,39.4202077 L38.1958251,38.4540207 C37.9695652,37.7069663 38.3855092,36.9160285 39.124862,36.6874118 C39.8642148,36.458795 40.6469986,36.8790717 40.8732585,37.6261261 L41.165887,38.5923131 Z M40.5806301,36.6599392 C40.80689,37.4069936 40.390946,38.1979314 39.6515932,38.4265482 C38.9122403,38.655165 38.1294566,38.2348882 37.9031967,37.4878338 L37.6105682,36.5216469 C37.3843083,35.7745925 37.8002523,34.9836547 38.5396051,34.7550379 C39.278958,34.5264211 40.0617418,34.9466979 40.2880017,35.6937523 L40.5806301,36.6599392 Z M39.9953732,34.7275654 C40.2216331,35.4746198 39.8056891,36.2655576 39.0663363,36.4941744 C38.3269835,36.7227912 37.5441997,36.3025144 37.3179398,35.55546 L37.0253114,34.5892731 C36.7990515,33.8422186 37.2149955,33.0512809 37.9543483,32.8226641 C38.6937011,32.5940473 39.4764849,33.014324 39.7027448,33.7613785 L39.9953732,34.7275654 Z M38.4810795,34.5618005 C37.7417266,34.7904173 36.9589428,34.3701406 36.7326829,33.6230861 L36.3870111,32.4817629 L37.8143766,31.3998172 C38.4328798,30.9309905 39.3104168,31.0575502 39.7744102,31.6824963 C40.2384035,32.3074423 40.1131485,33.1941202 39.4946453,33.6629468 L39.3582504,33.7663344 C39.2014846,34.1354626 38.8909856,34.4350526 38.4810795,34.5618005 Z M40.2945733,33.0565999 C39.67607,33.5254265 38.7985331,33.3988668 38.3345397,32.7739208 C37.8705463,32.1489748 37.9958013,31.2622968 38.6143046,30.7934702 L39.4142326,30.1871232 C40.0327359,29.7182966 40.9102728,29.8448563 41.3742662,30.4698023 C41.8382596,31.0947483 41.7130046,31.9814263 41.0945013,32.4502529 L40.2945733,33.0565999 Z M41.8944293,31.843906 C41.2759261,32.3127326 40.3983891,32.1861729 39.9343958,31.5612269 C39.4704024,30.9362809 39.5956574,30.0496029 40.2141606,29.5807763 L41.0140887,28.9744293 C41.6325919,28.5056027 42.5101289,28.6321624 42.9741222,29.2571084 C43.4381156,29.8820544 43.3128606,30.7687324 42.6943574,31.237559 L41.8944293,31.843906 Z M43.4942854,30.631212 C42.8757821,31.1000387 41.9982452,30.973479 41.5342518,30.3485329 C41.0702584,29.7235869 41.1955134,28.836909 41.8140167,28.3680824 L42.6139447,27.7617354 C43.232448,27.2929087 44.1099849,27.4194685 44.5739783,28.0444145 C45.0379717,28.6693605 44.9127167,29.5560384 44.2942134,30.0248651 L43.4942854,30.631212 Z M45.0941414,29.4185181 C44.4756382,29.8873448 43.5981012,29.760785 43.1341078,29.135839 C42.6701145,28.510893 42.7953695,27.6242151 43.4138727,27.1553884 L44.2138008,26.5490415 C44.832304,26.0802148 45.7098409,26.2067746 46.1738343,26.8317206 C46.6378277,27.4566666 46.5125727,28.3433445 45.8940694,28.8121712 L45.0941414,29.4185181 Z M46.6939975,28.2058242 C46.0754942,28.6746509 45.1979573,28.5480911 44.7339639,27.9231451 C44.2699705,27.2981991 44.3952255,26.4115212 45.0137288,25.9426945 L45.8136568,25.3363476 C46.4321601,24.8675209 47.309697,24.9940807 47.7736904,25.6190267 C48.2376838,26.2439727 48.1124287,27.1306506 47.4939255,27.5994773 L46.6939975,28.2058242 Z M48.2938535,26.9931303 C47.6753502,27.4619569 46.7978133,27.3353972 46.3338199,26.7104512 C45.8698265,26.0855052 45.9950815,25.1988272 46.6135848,24.7300006 L47.4135128,24.1236536 C48.0320161,23.654827 48.909553,23.7813867 49.3735464,24.4063327 C49.8375398,25.0312788 49.7122848,25.9179567 49.0937815,26.3867833 L48.2938535,26.9931303 Z M49.8937095,25.7804364 C49.2752063,26.249263 48.3976694,26.1227033 47.933676,25.4977573 C47.4696826,24.8728113 47.5949376,23.9861333 48.2134409,23.5173067 L49.0133689,22.9109597 C49.6318721,22.4421331 50.5094091,22.5686928 50.9734025,23.1936388 C51.4373958,23.8185848 51.3121408,24.7052628 50.6936376,25.1740894 L49.8937095,25.7804364 Z M51.4935656,24.5677425 C50.8750623,25.0365691 49.9975254,24.9100094 49.533532,24.2850634 C49.0695386,23.6601173 49.1947936,22.7734394 49.8132969,22.3046128 L50.5361013,21.7567277 C50.5427036,21.751606 50.5427036,21.751606 50.5482265,21.7469778 C51.1388835,21.2428209 52.0221921,21.3179308 52.5211515,21.9147405 C53.020111,22.5115501 52.9457754,23.4040598 52.3551184,23.9082168 C52.2886026,23.9639126 52.2886026,23.9639126 52.2180725,24.0185648 L51.4935656,24.5677425 Z M53.337635,22.2032378 C53.1996419,22.9719479 52.4710382,23.4820797 51.7102531,23.3426492 C50.9494679,23.2032188 50.4445951,22.4670254 50.5825882,21.6983154 C50.5872268,21.6724753 50.5814946,21.6355288 50.5648335,21.6030415 C50.2090944,20.9093879 50.477231,20.0556829 51.1637336,19.6962381 C51.8502362,19.3367933 52.6951401,19.6077231 53.0508793,20.3013767 C53.3497201,20.8840846 53.4538997,21.5555686 53.337635,22.2032378 Z M51.4626494,18.8929783 C52.1909546,19.1553127 52.5708909,19.9645348 52.311261,20.7004265 C52.0516311,21.4363182 51.2507514,21.8202123 50.5224462,21.5578779 C50.5140812,21.5548648 50.5026172,21.5524424 50.4861268,21.5512487 C49.7149046,21.4954238 49.1344941,20.8184571 49.1897435,20.0392013 C49.244993,19.2599456 49.9149807,18.6734891 50.6862028,18.7293141 C50.9545253,18.7487366 51.2150029,18.8037764 51.4626494,18.8929783 Z" id="Star" fill="#FFFFFF" fill-rule="nonzero"></path>
                <polygon id="Area" points="0.0652453608 -0.000225 53.5085443 -0.000225 53.5085443 53.999775 0.0652453608 53.999775"></polygon>
            </g>
        </g>
    </g>
</svg>