<?xml version="1.0" encoding="UTF-8"?>
<svg width="53px" height="53px" viewBox="0 0 53 53" version="1.1" xmlns="http://www.w3.org/2000/svg" xmlns:xlink="http://www.w3.org/1999/xlink">
    <!-- Generator: Sketch 52.5 (67469) - http://www.bohemiancoding.com/sketch -->
    <title>☂️ Umbrella</title>
    <desc>Created with Sketch.</desc>
    <g id="Hephestos-Misc-Icons" stroke="none" stroke-width="1" fill="none" fill-rule="evenodd">
        <g transform="translate(-200.000000, -210.000000)" id="☂️-Umbrella">
            <g transform="translate(199.244000, 209.720769)">
                <path d="M25.553424,2.360744 C25.553424,1.58754535 26.1802254,0.960744 26.953424,0.960744 C27.7266226,0.960744 28.353424,1.58754535 28.353424,2.360744 L28.353424,6.342056 C28.353424,7.11525465 27.7266226,7.742056 26.953424,7.742056 C26.1802254,7.742056 25.553424,7.11525465 25.553424,6.342056 L25.553424,2.360744 Z M25.553424,32.995376 C25.553424,32.2221774 26.1802254,31.595376 26.953424,31.595376 C27.7266226,31.595376 28.353424,32.2221774 28.353424,32.995376 L28.353424,46.72628 C28.353424,47.4994786 27.7266226,48.12628 26.953424,48.12628 C26.1802254,48.12628 25.553424,47.4994786 25.553424,46.72628 L25.553424,32.995376 Z M35.3622,46.72628 C35.3622,45.9530814 35.9890014,45.32628 36.7622,45.32628 C37.5353986,45.32628 38.1622,45.9530814 38.1622,46.72628 C38.1622,50.2080744 35.3395869,53.030344 31.857704,53.030344 C28.3758211,53.030344 25.553208,50.2080744 25.553208,46.72628 C25.553208,45.9530814 26.1800094,45.32628 26.953208,45.32628 C27.7264066,45.32628 28.353208,45.9530814 28.353208,46.72628 C28.353208,48.6616008 29.9221421,50.230344 31.857704,50.230344 C33.7932659,50.230344 35.3622,48.6616008 35.3622,46.72628 Z M8.503352,22.661184 C11.0212594,22.661184 13.3001989,23.9005596 14.6900826,25.863638 C16.0800723,23.90055 18.3590157,22.661184 20.876912,22.661184 C23.3243461,22.661184 25.5460142,23.8321544 26.9449725,25.7005413 C28.3437963,23.8322199 30.5657899,22.661184 33.013304,22.661184 C35.5309255,22.661184 37.8101127,23.9007351 39.199868,25.8637993 C40.5896233,23.9007351 42.8688105,22.661184 45.386432,22.661184 C47.0341757,22.661184 48.5797043,23.1919451 49.8406535,24.1089091 C47.6734258,14.7940547 38.303388,7.742056 27.014552,7.742056 C15.7741388,7.742056 6.43591385,14.7343478 4.21709352,23.9903814 C5.44615195,23.14635 6.9279788,22.661184 8.503352,22.661184 Z M8.503352,25.461184 C6.44892948,25.461184 4.64593185,26.7705453 3.98368524,28.6857693 L3.65779197,29.628256 L0.91668,29.628256 L0.91668,28.228256 C0.91668,15.3275561 12.6364573,4.942056 27.014552,4.942056 C41.3931896,4.942056 53.113072,15.3274609 53.113072,28.228256 L53.113072,29.628256 L50.23204,29.628256 L49.9062419,28.6855587 C49.2444686,26.7707164 47.441044,25.461184 45.386432,25.461184 C43.3323943,25.461184 41.52902,26.7707841 40.8672701,28.6855587 L40.541472,29.628256 L37.858264,29.628256 L37.5324659,28.6855587 C36.870716,26.7707841 35.0673417,25.461184 33.013304,25.461184 C30.958692,25.461184 29.1552674,26.7707164 28.4934941,28.6855587 L28.167696,29.628256 L25.722772,29.628256 L25.3968312,28.6858746 C24.7343788,26.7705491 22.931328,25.461184 20.876912,25.461184 C18.822496,25.461184 17.0194452,26.7705491 16.3569928,28.6858746 L16.031052,29.628256 L13.348912,29.628256 L13.0230188,28.6857693 C12.3607722,26.7705453 10.5577745,25.461184 8.503352,25.461184 Z" id="Umbrella" fill="#FFFFFF" fill-rule="nonzero"></path>
                <polygon id="Area" points="1.158272 1.128464 52.998272 1.128464 52.998272 52.968464 1.158272 52.968464"></polygon>
            </g>
        </g>
    </g>
</svg>